<svg width="152" height="136" viewBox="0 0 152 136" fill="none" xmlns="http://www.w3.org/2000/svg">
<path d="M18 91.7754L24.9496 94.8292L26.0898 93.0499V22.202L24.9496 20.8945L18 23.9483V91.7754Z" fill="#9D5025"/>
<path d="M38.3005 23.7874L24.9497 20.8945V94.8292L38.3005 92.0968V23.7874Z" fill="#F68536"/>
<path d="M79.2668 29.413L88.7767 25.0735L120.416 35.842L112.003 36.8063L79.2668 29.413Z" fill="#6B3A19"/>
<path d="M79.6328 86.3107L88.96 90.6502L120.599 79.8817L112.186 78.917L79.6328 86.3107Z" fill="#FBBF93"/>
<path d="M82.0103 74.4165L98.6528 76.3455L99.6082 74.8386V41.1612L98.6528 39.3782L82.0103 41.3068V74.4165Z" fill="#9D5025"/>
<path d="M33.1797 17.1979L43.4214 12.6975L44.5404 14.5935V101.032L43.4214 103.026L33.1797 98.5259V17.1979Z" fill="#9D5025"/>
<path d="M64.2699 96.9188L43.4211 102.865V12.6975L64.2699 18.6446V96.9188Z" fill="#F68536"/>
<path d="M56.2231 108.491L72.4999 115.724L74.203 114.004V2.12055L72.4999 0L56.2231 7.23279V108.491Z" fill="#9D5025"/>
<path d="M111.637 36.8066L120.05 35.8423L120.773 36.7647V78.955L120.05 80.0424L111.637 79.0781V36.8066Z" fill="#9D5025"/>
<path d="M98.6528 39.3782V76.506L116.027 57.8618L98.6528 39.3782Z" fill="#F68536"/>
<path d="M120.05 20.8946L72.5 0V115.724L127 91.7755V23.9484L120.05 20.8946ZM120.05 80.0984L88.7768 88.3067V27.4172L120.05 35.6255V80.0984Z" fill="#F68536"/>
<path d="M51.9922 135H50.5469V123H51.9922V135ZM59.5312 135C59.4479 134.833 59.3802 134.536 59.3281 134.109C58.6562 134.807 57.8542 135.156 56.9219 135.156C56.0885 135.156 55.4036 134.922 54.8672 134.453C54.3359 133.979 54.0703 133.38 54.0703 132.656C54.0703 131.776 54.4036 131.094 55.0703 130.609C55.7422 130.12 56.6849 129.875 57.8984 129.875H59.3047V129.211C59.3047 128.706 59.1536 128.305 58.8516 128.008C58.5495 127.706 58.1042 127.555 57.5156 127.555C57 127.555 56.5677 127.685 56.2188 127.945C55.8698 128.206 55.6953 128.521 55.6953 128.891H54.2422C54.2422 128.469 54.3906 128.062 54.6875 127.672C54.9896 127.276 55.3958 126.964 55.9062 126.734C56.4219 126.505 56.987 126.391 57.6016 126.391C58.5755 126.391 59.3385 126.635 59.8906 127.125C60.4427 127.609 60.7292 128.279 60.75 129.133V133.023C60.75 133.799 60.849 134.417 61.0469 134.875V135H59.5312ZM57.1328 133.898C57.5859 133.898 58.0156 133.781 58.4219 133.547C58.8281 133.312 59.1224 133.008 59.3047 132.633V130.898H58.1719C56.401 130.898 55.5156 131.417 55.5156 132.453C55.5156 132.906 55.6667 133.26 55.9688 133.516C56.2708 133.771 56.6589 133.898 57.1328 133.898ZM64.375 126.547L64.4141 127.484C65.0339 126.755 65.8698 126.391 66.9219 126.391C68.1042 126.391 68.9089 126.844 69.3359 127.75C69.6172 127.344 69.9818 127.016 70.4297 126.766C70.8828 126.516 71.4167 126.391 72.0312 126.391C73.8854 126.391 74.8281 127.372 74.8594 129.336V135H73.4141V129.422C73.4141 128.818 73.276 128.367 73 128.07C72.724 127.768 72.2604 127.617 71.6094 127.617C71.0729 127.617 70.6276 127.779 70.2734 128.102C69.9193 128.419 69.7135 128.849 69.6562 129.391V135H68.2031V129.461C68.2031 128.232 67.6016 127.617 66.3984 127.617C65.4505 127.617 64.8021 128.021 64.4531 128.828V135H63.0078V126.547H64.375ZM84.2031 130.867C84.2031 132.159 83.9062 133.198 83.3125 133.984C82.7188 134.766 81.9219 135.156 80.9219 135.156C79.8542 135.156 79.0286 134.779 78.4453 134.023L78.375 135H77.0469V123H78.4922V127.477C79.0755 126.753 79.8802 126.391 80.9062 126.391C81.9323 126.391 82.737 126.779 83.3203 127.555C83.9089 128.331 84.2031 129.393 84.2031 130.742V130.867ZM82.7578 130.703C82.7578 129.719 82.5677 128.958 82.1875 128.422C81.8073 127.885 81.2604 127.617 80.5469 127.617C79.5938 127.617 78.9089 128.06 78.4922 128.945V132.602C78.9349 133.487 79.625 133.93 80.5625 133.93C81.2552 133.93 81.7943 133.661 82.1797 133.125C82.5651 132.589 82.7578 131.781 82.7578 130.703ZM85.6797 130.703C85.6797 129.406 85.987 128.365 86.6016 127.578C87.2161 126.786 88.0208 126.391 89.0156 126.391C90.0052 126.391 90.7891 126.729 91.3672 127.406V123H92.8125V135H91.4844L91.4141 134.094C90.8359 134.802 90.0312 135.156 89 135.156C88.0208 135.156 87.2214 134.755 86.6016 133.953C85.987 133.151 85.6797 132.104 85.6797 130.812V130.703ZM87.125 130.867C87.125 131.826 87.3229 132.576 87.7188 133.117C88.1146 133.659 88.6615 133.93 89.3594 133.93C90.276 133.93 90.9453 133.518 91.3672 132.695V128.812C90.9349 128.016 90.2708 127.617 89.375 127.617C88.6667 127.617 88.1146 127.891 87.7188 128.438C87.3229 128.984 87.125 129.794 87.125 130.867ZM100.281 135C100.198 134.833 100.13 134.536 100.078 134.109C99.4062 134.807 98.6042 135.156 97.6719 135.156C96.8385 135.156 96.1536 134.922 95.6172 134.453C95.0859 133.979 94.8203 133.38 94.8203 132.656C94.8203 131.776 95.1536 131.094 95.8203 130.609C96.4922 130.12 97.4349 129.875 98.6484 129.875H100.055V129.211C100.055 128.706 99.9036 128.305 99.6016 128.008C99.2995 127.706 98.8542 127.555 98.2656 127.555C97.75 127.555 97.3177 127.685 96.9688 127.945C96.6198 128.206 96.4453 128.521 96.4453 128.891H94.9922C94.9922 128.469 95.1406 128.062 95.4375 127.672C95.7396 127.276 96.1458 126.964 96.6562 126.734C97.1719 126.505 97.737 126.391 98.3516 126.391C99.3255 126.391 100.089 126.635 100.641 127.125C101.193 127.609 101.479 128.279 101.5 129.133V133.023C101.5 133.799 101.599 134.417 101.797 134.875V135H100.281ZM97.8828 133.898C98.3359 133.898 98.7656 133.781 99.1719 133.547C99.5781 133.312 99.8724 133.008 100.055 132.633V130.898H98.9219C97.151 130.898 96.2656 131.417 96.2656 132.453C96.2656 132.906 96.4167 133.26 96.7188 133.516C97.0208 133.771 97.4089 133.898 97.8828 133.898Z" fill="white"/>
</svg>
