<svg width="139" height="92" viewBox="0 0 139 92" fill="none" xmlns="http://www.w3.org/2000/svg">
<path d="M136.131 35.0581C133.001 33.0689 125.828 32.323 120.22 33.3176C119.568 28.3448 116.568 23.9936 111.351 20.1397L108.352 18.1506L106.265 21.01C103.657 24.7395 102.353 29.961 102.744 34.9337C102.874 36.6742 103.526 39.7822 105.483 42.5172C103.657 43.5118 99.8747 44.755 94.9189 44.755H0.627004L0.366169 45.7495C-0.546754 50.7223 -0.546754 66.2622 10.1475 78.1969C18.2334 87.2722 30.2318 91.872 46.0123 91.872C80.1817 91.872 105.483 76.8293 117.351 49.6034C122.046 49.7277 132.088 49.6034 137.174 40.2795C137.305 40.0308 137.565 39.5335 138.478 37.6688L139 36.6742L136.131 35.0581ZM76.0083 0H61.6624V12.4319H76.0083V0ZM76.0083 14.9183H61.6624V27.3503H76.0083V14.9183ZM59.0541 14.9183H44.7081V27.3503H59.0541V14.9183ZM42.0998 14.9183H27.7539V27.3503H42.0998V14.9183ZM25.1455 29.8366H10.7996V42.2686H25.1455V29.8366ZM42.0998 29.8366H27.7539V42.2686H42.0998V29.8366ZM59.0541 29.8366H44.7081V42.2686H59.0541V29.8366ZM76.0083 29.8366H61.6624V42.2686H76.0083V29.8366ZM92.9626 29.8366H78.6167V42.2686H92.9626V29.8366Z" fill="#2396ED"/>
</svg>
