<svg width="125" height="113" viewBox="0 0 125 113" fill="none" xmlns="http://www.w3.org/2000/svg">
<path d="M102.775 36.6254C101.478 36.1719 100.135 35.7428 98.7512 35.337C98.9786 34.3941 99.1873 33.4634 99.3729 32.5485C102.419 17.5254 100.427 5.42272 93.6266 1.438C87.1056 -2.38282 76.4411 1.601 65.6704 11.1249C64.6347 12.0407 63.596 13.0103 62.5579 14.0265C61.8661 13.3542 61.1755 12.7044 60.4866 12.083C49.1986 1.89941 37.8841 -2.39208 31.0901 1.60416C24.5754 5.43606 22.6461 16.8137 25.3879 31.0512C25.6527 32.4264 25.9622 33.8307 26.3122 35.2586C24.7109 35.7205 23.165 36.2128 21.6858 36.7366C8.45182 41.4247 0 48.7719 0 56.393C0 64.2641 9.07304 72.1589 22.8573 76.946C23.945 77.3237 25.0738 77.6809 26.237 78.0201C25.8594 79.5643 25.531 81.0777 25.2553 82.5537C22.641 96.544 24.6826 107.653 31.18 111.461C37.8912 115.393 49.1546 111.351 60.1222 101.61C60.989 100.84 61.859 100.023 62.7305 99.1676C63.8601 100.273 64.988 101.319 66.1098 102.3C76.7332 111.589 87.2256 115.339 93.717 111.521C100.422 107.577 102.6 95.6438 99.7716 81.1247C99.5555 80.0158 99.3041 78.8829 99.0218 77.73C99.8127 77.4924 100.589 77.2471 101.346 76.9921C115.676 72.168 125 64.3692 125 56.393C125 48.7444 116.276 41.3476 102.775 36.6254ZM99.667 71.842C98.9835 72.0719 98.2822 72.2941 97.5675 72.5096C95.9855 67.421 93.8505 62.01 91.2377 56.4195C93.731 50.9621 95.7835 45.6203 97.3212 40.5647C98.5999 40.9406 99.841 41.3372 101.037 41.7556C112.604 45.8016 119.66 51.7837 119.66 56.393C119.66 61.3028 112.04 67.6764 99.667 71.842ZM94.5331 82.1784C95.784 88.5986 95.9626 94.4031 95.134 98.9408C94.3896 103.018 92.8924 105.737 91.0412 106.825C87.1019 109.142 78.6776 106.131 69.5924 98.1871C68.5508 97.2765 67.5018 96.3042 66.4493 95.2751C69.9715 91.3611 73.4916 86.811 76.9272 81.7577C82.9701 81.2128 88.6792 80.3221 93.8565 79.1061C94.1115 80.1512 94.338 81.1762 94.5331 82.1784ZM42.6153 106.425C38.7665 107.806 35.7012 107.846 33.8482 106.76C29.9053 104.449 28.2662 95.5301 30.5021 83.5656C30.7582 82.1953 31.063 80.7878 31.4143 79.3491C36.5349 80.4996 42.2021 81.3275 48.2594 81.8264C51.7182 86.7712 55.34 91.3164 58.9899 95.2961C58.1924 96.0783 57.3981 96.823 56.6082 97.5247C51.7584 101.832 46.8984 104.888 42.6153 106.425ZM24.5843 71.8119C18.4892 69.6952 13.4556 66.9442 10.0053 63.9422C6.90501 61.2445 5.33974 58.5662 5.33974 56.393C5.33974 51.7683 12.1257 45.8694 23.4435 41.8601C24.8168 41.3736 26.2544 40.9151 27.7462 40.4844C29.3104 45.6542 31.3623 51.0593 33.8384 56.525C31.3302 62.0719 29.2492 67.5632 27.6697 72.7935C26.6061 72.4829 25.5757 72.156 24.5843 71.8119ZM30.6285 30.0092C28.2793 17.8109 29.8395 8.60896 33.7655 6.29987C37.9473 3.84 47.1946 7.34726 56.9409 16.1403C57.5639 16.7023 58.1893 17.2905 58.8165 17.8991C55.1847 21.8614 51.596 26.3724 48.168 31.2881C42.2891 31.8418 36.6617 32.7311 31.4877 33.9221C31.1624 32.5925 30.8743 31.2863 30.6285 30.0092ZM84.5478 43.5371C83.3109 41.3663 82.0411 39.2469 80.7466 37.1854C84.7349 37.6977 88.5561 38.3777 92.1446 39.2099C91.0672 42.718 89.7244 46.386 88.1438 50.1462C87.01 47.959 85.8107 45.7537 84.5478 43.5371ZM62.5596 21.7767C65.0227 24.4879 67.4893 27.515 69.9154 30.7994C67.4706 30.682 64.9955 30.621 62.5 30.621C60.028 30.621 57.5712 30.6807 55.1415 30.796C57.5701 27.5421 60.0581 24.5191 62.5596 21.7767ZM40.4306 43.5746C39.1951 45.7514 38.0181 47.9448 36.902 50.1422C35.347 46.3951 34.0167 42.7103 32.93 39.1524C36.4964 38.3415 40.2996 37.6785 44.2625 37.1759C42.9497 39.2564 41.6695 41.3914 40.4306 43.5741V43.5746ZM44.3766 75.9972C40.2822 75.533 36.4219 74.9041 32.8563 74.1156C33.9604 70.4942 35.32 66.7308 36.908 62.9029C38.027 65.0988 39.2087 67.293 40.4518 69.4746H40.452C41.7182 71.6971 43.0301 73.8741 44.3766 75.9972ZM62.7074 91.3919C60.1765 88.6173 57.652 85.5482 55.1865 82.2469C57.5799 82.3423 60.02 82.3911 62.5 82.3911C65.0478 82.3911 67.5665 82.3328 70.0456 82.2207C67.6115 85.5814 65.1537 88.6553 62.7074 91.3919ZM88.1948 62.7078C89.8655 66.577 91.2739 70.3208 92.3922 73.8805C88.7679 74.7205 84.8549 75.3972 80.732 75.9C82.0296 73.8106 83.3105 71.6548 84.5692 69.4373C85.8425 67.1938 87.0516 64.9468 88.1948 62.7078ZM79.9436 66.7267C77.9897 70.1691 75.9836 73.4552 73.9471 76.5571C70.2378 76.8266 66.4057 76.9654 62.5 76.9654C58.6101 76.9654 54.8263 76.8427 51.1826 76.6024C49.064 73.4597 47.0143 70.1639 45.0728 66.7563H45.0733C43.1369 63.358 41.3547 59.931 39.7398 56.5232C41.3542 53.1075 43.1317 49.6767 45.057 46.2845L45.0566 46.2852C46.987 42.8839 49.0186 39.6041 51.1177 36.4812C54.8352 36.1957 58.6472 36.0467 62.4998 36.0467H62.5C66.3699 36.0467 70.1869 36.1968 73.9033 36.4848C75.9703 39.5849 77.9881 42.8541 79.9261 46.2558C81.8861 49.6957 83.6865 53.1037 85.3148 56.4461C83.6914 59.846 81.895 63.2884 79.9436 66.7267ZM90.9593 6.13846C95.1452 8.5911 96.773 18.4826 94.143 31.4534C93.9753 32.281 93.7864 33.124 93.5812 33.9784C88.3952 32.7626 82.7638 31.8578 76.8678 31.2958C73.4331 26.3261 69.8738 21.8081 66.3012 17.8966C67.2617 16.9577 68.2209 16.0625 69.1761 15.2177C78.4044 7.05766 87.0296 3.83593 90.9593 6.13846ZM62.5 45.0517C68.6645 45.0517 73.6621 50.1293 73.6621 56.393C73.6621 62.6565 68.6645 67.7343 62.5 67.7343C56.3355 67.7343 51.3379 62.6565 51.3379 56.393C51.3379 50.1293 56.3355 45.0517 62.5 45.0517Z" fill="#00D8FF"/>
</svg>
