<svg width="150" height="150" viewBox="0 0 150 150" fill="none" xmlns="http://www.w3.org/2000/svg">
<rect width="150" height="150" fill="white"/>
<path fill-rule="evenodd" clip-rule="evenodd" d="M86.1708 24.5288L113.055 40.0511C113.812 39.2492 114.697 38.5412 115.7 37.9585C121.276 34.7533 128.387 36.6564 131.626 42.2322C134.831 47.808 132.928 54.9196 127.352 58.1582C126.357 58.7305 125.311 59.1399 124.247 59.3946V90.4513C125.3 90.7066 126.334 91.1135 127.319 91.6797C132.928 94.9183 134.831 102.03 131.592 107.606C128.387 113.182 121.242 115.085 115.666 111.879C114.556 111.241 113.592 110.447 112.784 109.54L86.0636 124.968C86.4456 126.122 86.6523 127.356 86.6523 128.64C86.6523 135.051 81.4438 140.293 74.9999 140.293C68.5561 140.293 63.3475 135.084 63.3475 128.64C63.3475 127.495 63.5121 126.388 63.8189 125.343L36.9415 109.825C36.1926 110.611 35.3206 111.306 34.3334 111.879C28.7243 115.085 21.6126 113.182 18.4074 107.606C15.2022 102.03 17.1053 94.9183 22.6811 91.6797C23.6669 91.113 24.7008 90.706 25.7527 90.4507V59.3946C24.6886 59.1399 23.6431 58.7305 22.6477 58.1582C17.0719 54.953 15.1688 47.808 18.374 42.2322C21.5793 36.6564 28.7243 34.7533 34.3001 37.9585C35.2977 38.538 36.1778 39.2415 36.9321 40.038L63.8239 24.5115C63.5139 23.4615 63.3475 22.3494 63.3475 21.1978C63.3475 14.7539 68.5561 9.54541 74.9999 9.54541C81.4438 9.54541 86.6523 14.7539 86.6523 21.1978C86.6523 22.3557 86.4841 23.4737 86.1708 24.5288ZM83.3698 29.3113L110.318 44.8705C109.485 47.7962 109.791 51.0402 111.426 53.8846C113.067 56.7382 115.739 58.6299 118.705 59.3671V90.4626C118.554 90.4997 118.403 90.5398 118.254 90.5829L83.0569 29.6221C83.1631 29.5204 83.2674 29.4168 83.3698 29.3113ZM66.9504 29.6291L31.7542 90.5889C31.602 90.5447 31.449 90.5036 31.2951 90.4656V59.3671C34.2609 58.6299 36.9333 56.7382 38.5737 53.8846C40.212 51.0346 40.5157 47.7833 39.6765 44.8531L66.6175 29.2983C66.7263 29.4108 66.8372 29.5211 66.9504 29.6291ZM78.2557 32.3908L113.444 93.3367C112.656 94.0876 111.962 94.9625 111.393 95.9534C110.827 96.9384 110.42 97.9724 110.164 99.025H39.8361C39.5808 97.9731 39.1738 96.9392 38.6071 95.9534C38.0352 94.9688 37.3426 94.0988 36.559 93.3512L71.7539 32.3936C72.784 32.6909 73.8731 32.8502 74.9999 32.8502C76.1304 32.8502 77.2228 32.6899 78.2557 32.3908ZM83.6172 120.79L110.391 105.332C110.311 105.079 110.239 104.825 110.176 104.567H39.8212C39.7839 104.718 39.7436 104.869 39.7003 105.018L66.6053 120.552C68.7237 118.354 71.6998 116.988 74.9999 116.988C78.4174 116.988 81.4874 118.453 83.6172 120.79Z" fill="#E535AB"/>
</svg>
