<svg width="150" height="150" viewBox="0 0 150 150" fill="none" xmlns="http://www.w3.org/2000/svg">
<rect width="150" height="150" fill="white"/>
<path d="M130.726 110.524L83.8242 10.9199C82.6369 8.42264 80.1761 6.77729 77.4146 6.63439C74.6468 6.44894 72.0055 7.81819 70.5618 10.1869L19.691 92.5805C18.1118 95.1204 18.145 98.3447 19.7763 100.852L44.6474 139.367C46.5798 142.336 50.2353 143.68 53.631 142.671L125.807 121.321C128.006 120.678 129.818 119.114 130.774 117.032C131.718 114.961 131.702 112.579 130.73 110.52L130.726 110.524ZM120.226 114.796L58.9803 132.906C57.112 133.462 55.3187 131.842 55.7073 129.957L77.5885 25.1846C77.9976 23.2242 80.7046 22.914 81.5604 24.7278L122.067 110.745C122.429 111.521 122.434 112.417 122.079 113.196C121.724 113.975 121.045 114.56 120.222 114.796H120.226Z" fill="black"/>
</svg>
