<svg width="150" height="150" viewBox="0 0 150 150" fill="none" xmlns="http://www.w3.org/2000/svg">
<path d="M0 75V150H75H150V75V0H75H0V75Z" fill="#007ACC"/>
<path d="M33.1706 75.4977L33.123 81.6405H42.8849H52.6468L52.6468 109.379V137.117H59.5515H66.4563V109.379V81.6405H76.2182H85.9801L85.9801 75.6167C85.9801 72.2834 85.9087 69.4977 85.8134 69.4262C85.742 69.331 73.8611 69.2834 59.4563 69.3072L33.242 69.3786L33.1706 75.4977Z" fill="white"/>
<path d="M121.035 69.2041C124.845 70.1565 127.749 71.8469 130.416 74.6089C131.797 76.085 133.845 78.7755 134.011 79.4184C134.059 79.6089 127.535 83.9898 123.583 86.4422C123.44 86.5374 122.868 85.9184 122.226 84.966C120.297 82.1565 118.273 80.9422 115.178 80.7279C110.63 80.4184 107.702 82.7993 107.726 86.7755C107.726 87.9422 107.892 88.6327 108.368 89.585C109.368 91.6565 111.226 92.8946 117.059 95.4184C127.797 100.037 132.392 103.085 135.249 107.418C138.44 112.252 139.154 119.966 136.988 125.704C134.607 131.942 128.702 136.18 120.392 137.585C117.821 138.037 111.726 137.966 108.964 137.466C102.94 136.395 97.2256 133.418 93.7018 129.514C92.3209 127.99 89.6304 124.014 89.7971 123.728C89.8685 123.633 90.4875 123.252 91.178 122.847C91.8447 122.466 94.3685 121.014 96.7495 119.633L101.059 117.133L101.964 118.466C103.226 120.395 105.988 123.037 107.654 123.918C112.44 126.442 119.011 126.085 122.249 123.18C123.63 121.918 124.202 120.609 124.202 118.68C124.202 116.942 123.988 116.18 123.083 114.871C121.916 113.204 119.535 111.799 112.773 108.871C105.035 105.537 101.702 103.466 98.6542 100.18C96.8923 98.2755 95.2256 95.2279 94.5352 92.6803C93.9637 90.5612 93.8209 85.2517 94.2733 83.1089C95.8685 75.6327 101.511 70.4184 109.654 68.8708C112.297 68.3708 118.44 68.5612 121.035 69.2041Z" fill="white"/>
</svg>
