<svg width="127" height="123" viewBox="0 0 127 123" fill="none" xmlns="http://www.w3.org/2000/svg">
<rect width="127" height="123" fill="white"/>
<g clip-path="url(#clip0)">
<path d="M41.4306 53.2123C41.4306 54.4179 41.5652 55.3954 41.8007 56.1122C42.0698 56.829 42.4062 57.611 42.8772 58.4582C43.0455 58.7188 43.1127 58.9795 43.1127 59.2076C43.1127 59.5334 42.9109 59.8592 42.4735 60.1851L40.3541 61.5535C40.0513 61.749 39.7485 61.8468 39.4794 61.8468C39.1429 61.8468 38.8065 61.6839 38.4701 61.3906C37.9991 60.9019 37.5954 60.3806 37.259 59.8592C36.9225 59.3053 36.5861 58.6863 36.2161 57.9369C33.5919 60.9345 30.295 62.4333 26.3252 62.4333C23.4992 62.4333 21.2452 61.6513 19.5967 60.0873C17.9482 58.5233 17.1072 56.438 17.1072 53.8314C17.1072 51.0619 18.1164 48.8137 20.1686 47.1194C22.2208 45.4251 24.9459 44.5779 28.411 44.5779C29.5549 44.5779 30.7323 44.6757 31.9771 44.8386C33.2219 45.0015 34.5003 45.2621 35.846 45.5554V43.1769C35.846 40.7006 35.3077 38.9737 34.2648 37.9636C33.1882 36.9535 31.3715 36.4648 28.7811 36.4648C27.6036 36.4648 26.3925 36.5951 25.1477 36.8884C23.9029 37.1816 22.6918 37.54 21.5143 37.9962C20.9761 38.2243 20.5723 38.3546 20.3368 38.4198C20.1013 38.4849 19.9331 38.5175 19.7986 38.5175C19.3276 38.5175 19.0921 38.1917 19.0921 37.5074V35.9109C19.0921 35.3896 19.1594 34.9986 19.3276 34.7705C19.4958 34.5424 19.7986 34.3143 20.2696 34.0863C21.447 33.4998 22.86 33.011 24.5085 32.62C26.157 32.1965 27.9064 32.001 29.7567 32.001C33.7602 32.001 36.687 32.8807 38.571 34.6402C40.4213 36.3996 41.3633 39.0714 41.3633 42.6555V53.2123H41.4306ZM27.7718 58.1649C28.882 58.1649 30.0259 57.9694 31.237 57.5784C32.4481 57.1874 33.5247 56.4706 34.433 55.4931C34.9713 54.8741 35.375 54.1898 35.5768 53.4078C35.7787 52.6259 35.9133 51.681 35.9133 50.5731V49.2047C34.9376 48.9766 33.8947 48.7811 32.8182 48.6508C31.7416 48.5204 30.6987 48.4553 29.6558 48.4553C27.4017 48.4553 25.7533 48.8788 24.6431 49.7586C23.5329 50.6383 22.9946 51.8765 22.9946 53.5056C22.9946 55.037 23.3983 56.1774 24.2394 56.9594C25.0468 57.7739 26.2243 58.1649 27.7718 58.1649ZM54.7866 61.6839C54.1811 61.6839 53.7774 61.5861 53.5082 61.358C53.2391 61.1625 53.0036 60.7064 52.8017 60.0873L44.8958 34.9008C44.6939 34.2492 44.593 33.8256 44.593 33.5975C44.593 33.0762 44.8621 32.7829 45.4004 32.7829H48.6974C49.3366 32.7829 49.7739 32.8807 50.0094 33.1088C50.2786 33.3043 50.4804 33.7604 50.6823 34.3795L56.3342 55.9493L61.5824 34.3795C61.7506 33.7278 61.9525 33.3043 62.2216 33.1088C62.4908 32.9133 62.9617 32.7829 63.5673 32.7829H66.2587C66.8979 32.7829 67.3353 32.8807 67.6044 33.1088C67.8735 33.3043 68.109 33.7604 68.2436 34.3795L73.5591 56.21L79.3792 34.3795C79.5811 33.7278 79.8166 33.3043 80.0521 33.1088C80.3212 32.9133 80.7586 32.7829 81.3641 32.7829H84.4929C85.0312 32.7829 85.3339 33.0436 85.3339 33.5975C85.3339 33.7604 85.3003 33.9233 85.2666 34.1188C85.233 34.3143 85.1657 34.575 85.0312 34.9334L76.9233 60.1199C76.7215 60.7716 76.486 61.1951 76.2169 61.3906C75.9477 61.5861 75.5104 61.7165 74.9384 61.7165H72.0452C71.406 61.7165 70.9686 61.6187 70.6995 61.3906C70.4304 61.1625 70.1949 60.739 70.0603 60.0873L64.8457 39.0714L59.6648 60.0547C59.4966 60.7064 59.2947 61.13 59.0256 61.358C58.7565 61.5861 58.2855 61.6839 57.6799 61.6839H54.7866ZM98.0171 62.5636C96.2677 62.5636 94.5183 62.3681 92.8362 61.9771C91.1541 61.5861 89.842 61.1625 88.9673 60.6738C88.429 60.3806 88.059 60.0547 87.9244 59.7615C87.7898 59.4682 87.7225 59.1424 87.7225 58.8492V57.1874C87.7225 56.5032 87.9917 56.1774 88.4963 56.1774C88.6982 56.1774 88.9 56.21 89.1019 56.2751C89.3037 56.3403 89.6065 56.4706 89.9429 56.601C91.0868 57.0897 92.3316 57.4807 93.6436 57.7414C94.9893 58.002 96.3014 58.1323 97.647 58.1323C99.7665 58.1323 101.415 57.7739 102.559 57.0571C103.703 56.3403 104.308 55.2976 104.308 53.9618C104.308 53.0494 104.005 52.3 103.4 51.681C102.794 51.0619 101.65 50.508 100.002 49.9867L95.1239 48.5204C92.668 47.771 90.8513 46.6632 89.7411 45.197C88.6309 43.7633 88.059 42.1668 88.059 40.4725C88.059 39.104 88.3617 37.8984 88.9673 36.8558C89.5729 35.8131 90.3803 34.9008 91.3896 34.184C92.3988 33.4346 93.5427 32.8807 94.8884 32.4897C96.2341 32.0987 97.647 31.9358 99.1273 31.9358C99.8674 31.9358 100.641 31.9684 101.381 32.0661C102.155 32.1639 102.862 32.2942 103.568 32.4245C104.241 32.5874 104.88 32.7504 105.486 32.9459C106.091 33.1414 106.562 33.3369 106.899 33.5323C107.37 33.793 107.706 34.0537 107.908 34.3469C108.11 34.6076 108.211 34.966 108.211 35.4221V36.9535C108.211 37.6378 107.942 37.9962 107.437 37.9962C107.168 37.9962 106.73 37.8659 106.159 37.6052C104.241 36.758 102.088 36.3345 99.6992 36.3345C97.7816 36.3345 96.2677 36.6277 95.2248 37.2468C94.1819 37.8659 93.6436 38.8108 93.6436 40.1467C93.6436 41.059 93.98 41.841 94.6529 42.46C95.3257 43.0791 96.5705 43.6982 98.3535 44.2521L103.131 45.7183C105.553 46.4677 107.302 47.5104 108.345 48.8463C109.388 50.1821 109.893 51.7135 109.893 53.4078C109.893 54.8089 109.59 56.0796 109.018 57.1874C108.413 58.2953 107.605 59.2727 106.562 60.0547C105.519 60.8693 104.275 61.4558 102.828 61.8794C101.314 62.3355 99.7329 62.5636 98.0171 62.5636Z" fill="#252F3E"/>
<path d="M104.376 78.3988C93.3072 86.3164 77.2262 90.5196 63.3992 90.5196C44.0211 90.5196 26.5607 83.5794 13.3729 72.0451C12.33 71.1328 13.272 69.8947 14.5168 70.6115C28.7811 78.6269 46.3761 83.4817 64.5766 83.4817C76.8561 83.4817 90.3467 81.0054 102.761 75.9225C104.611 75.1079 106.192 77.0955 104.376 78.3988ZM108.985 73.3159C107.572 71.5564 99.632 72.4687 96.0323 72.8923C94.9557 73.0226 94.7875 72.1103 95.7631 71.4261C102.088 67.1251 112.483 68.3633 113.695 69.7969C114.906 71.2631 113.358 81.3312 107.437 86.1535C106.529 86.9029 105.654 86.5119 106.058 85.5344C107.403 82.3087 110.398 75.0427 108.985 73.3159Z" fill="#FF9900"/>
</g>
<defs>
<clipPath id="clip0">
<rect width="101.6" height="58.8094" fill="white" transform="translate(12.7 31.9031)"/>
</clipPath>
</defs>
</svg>
