<svg width="130" height="130" viewBox="0 0 130 130" fill="none" xmlns="http://www.w3.org/2000/svg">
<rect width="130" height="130" fill="white"/>
<g clip-path="url(#clip0)">
<path d="M64.2014 78.2605C71.5231 78.2605 77.4585 72.3251 77.4585 65.0034C77.4585 57.6817 71.5231 51.7463 64.2014 51.7463C56.8797 51.7463 50.9443 57.6817 50.9443 65.0034C50.9443 72.3251 56.8797 78.2605 64.2014 78.2605Z" fill="#343434"/>
<path d="M10.055 50.9483C10.055 51.108 9.89526 51.4275 9.89526 51.5872C9.89526 53.0247 11.0133 54.3025 12.6106 54.3025H35.1317C36.2497 54.3025 37.0484 53.6636 37.5275 52.7052C42.1595 42.4829 52.3819 35.6148 64.0417 35.6148C80.1738 35.6148 93.2712 48.7121 93.2712 64.8443C93.2712 80.9764 80.1738 94.0738 64.0417 94.0738C52.2221 94.0738 42.1595 87.0459 37.5275 77.143C37.0484 76.025 36.2497 75.3861 35.1317 75.3861H12.6106C11.1731 75.3861 9.89526 76.5041 9.89526 78.1014C9.89526 78.2611 9.89526 78.5805 10.055 78.7403C16.2842 103.018 38.1664 120.907 64.2014 120.907C95.0282 120.907 120.105 95.8307 120.105 65.004C120.105 34.1773 95.0282 9.10059 64.2014 9.10059C38.1664 9.10059 16.2842 26.9897 10.055 50.9483Z" fill="#343434"/>
</g>
<defs>
<clipPath id="clip0">
<rect width="110.933" height="112.233" fill="white" transform="translate(9.53345 9.10059)"/>
</clipPath>
</defs>
</svg>
