<svg width="150" height="150" viewBox="0 0 150 150" fill="none" xmlns="http://www.w3.org/2000/svg">
<rect y="2.06421" width="150" height="147.936" fill="white"/>
<path d="M75.488 134.892L39.1454 124.942L31.0466 35.355H120.038L111.931 124.928L75.488 134.892Z" fill="#264DE4"/>
<path d="M104.99 119.225L111.918 42.6802H75.5422V127.276L104.99 119.225Z" fill="#2965F1"/>
<path d="M49.6128 75.907L50.6113 86.8944H75.5424V75.907H49.6128Z" fill="#EBEBEB"/>
<path d="M47.6064 53.668L48.6192 64.6556H75.5424V53.668H47.6064Z" fill="#EBEBEB"/>
<path d="M75.5424 104.443L75.4936 104.455L63.0859 101.151L62.2928 92.3882H51.1091L52.67 109.64L75.4911 115.888L75.5424 115.874V104.443Z" fill="#EBEBEB"/>
<path d="M51.9902 11.009H65.4837V16.5741H57.633V22.1392H65.4837V27.7043H51.9902V11.009Z" fill="black"/>
<path d="M68.1821 11.009H81.6756V15.8482H73.8249V16.8161H81.6756V27.9462H68.1821V22.8651H76.0329V21.8972H68.1821V11.009Z" fill="black"/>
<path d="M84.3743 11.009H97.8678V15.8482H90.017V16.8161H97.8678V27.9462H84.3743V22.8651H92.225V21.8972H84.3743V11.009Z" fill="black"/>
<path d="M101.4 75.907L103.412 53.668H75.5037V64.6556H91.2022L90.1885 75.907H75.5037V86.8944H89.2224L87.9292 101.144L75.5037 104.452V115.883L98.343 109.64L98.5105 107.784L101.129 78.8574L101.4 75.907Z" fill="white"/>
</svg>
