<svg width="135" height="150" viewBox="0 0 135 150" fill="none" xmlns="http://www.w3.org/2000/svg">
<path d="M7.52319 42.0488H106.757C117.693 42.0488 127.458 37.0343 134.01 29.2059C120.343 11.4519 98.891 0 74.7536 0C45.1984 0 19.6554 17.1561 7.52319 42.0488Z" fill="#F0BF1A"/>
<path d="M98.347 53.729H3.01836C1.06626 60.4009 0 67.4509 0 74.7531C0 82.0559 1.06626 89.1064 3.01836 95.7778H98.347C109.794 95.7778 119.372 86.4337 119.372 74.7531C119.372 63.0731 110.028 53.729 98.347 53.729Z" fill="#07A5DE"/>
<path d="M134.265 119.976C127.755 112.324 118.068 107.458 107.224 107.458H7.52319C19.6554 132.351 45.1984 149.507 74.7531 149.507C99.0395 149.507 120.611 137.917 134.265 119.976Z" fill="#3EBEB0"/>
<path d="M3.0186 53.729C1.06598 60.4009 0.000244141 67.4509 0.000244141 74.7531C0.000244141 82.0559 1.06598 89.1064 3.0186 95.7778H65.4092C67.0445 89.4704 67.9786 82.4624 67.9786 74.7531C67.9786 67.0444 67.0445 60.0363 65.4092 53.729H3.0186Z" fill="#231F20"/>
<path d="M37.1431 10.0449C24.5279 17.5203 14.0158 28.733 7.4751 42.0489H62.6059C56.9992 29.2003 48.1225 18.4549 37.1431 10.0449Z" fill="#D7A229"/>
<path d="M39.4794 140.63C50.2248 131.986 58.8682 120.54 64.2414 107.458H7.47534C14.4834 121.474 25.6967 133.154 39.4794 140.63Z" fill="#019B8F"/>
</svg>
