<svg width="150" height="150" viewBox="0 0 150 150" fill="none" xmlns="http://www.w3.org/2000/svg">
<path d="M0 0H150V150H0V0Z" fill="#F7DF1E"/>
<path d="M39.4404 125.351L50.9195 118.404C53.134 122.33 55.1485 125.653 59.9807 125.653C64.6126 125.653 67.5328 123.841 67.5328 116.793V68.8645H81.629V116.992C81.629 131.592 73.0709 138.238 60.5849 138.238C49.3085 138.238 42.7628 132.398 39.4402 125.35" fill="black"/>
<path d="M89.2856 123.841L100.763 117.195C103.785 122.129 107.712 125.754 114.659 125.754C120.499 125.754 124.224 122.834 124.224 118.806C124.224 113.973 120.398 112.261 113.954 109.443L110.431 107.931C100.26 103.602 93.514 98.1653 93.514 86.6865C93.514 76.1141 101.569 68.0586 114.156 68.0586C123.117 68.0586 129.561 71.1803 134.192 79.3362L123.217 86.3841C120.8 82.0548 118.183 80.3434 114.156 80.3434C110.028 80.3434 107.409 82.9612 107.409 86.3841C107.409 90.6131 110.028 92.3253 116.068 94.9434L119.592 96.4536C131.574 101.589 138.321 106.824 138.321 118.605C138.321 131.292 128.353 138.239 114.961 138.239C101.872 138.239 93.4135 131.997 89.2859 123.841" fill="black"/>
</svg>
