<svg width="200" height="104" viewBox="0 0 200 104" fill="none" xmlns="http://www.w3.org/2000/svg">
<path d="M47.1916 27.1247H84.9134V29.7089H50.6494V49.1589H82.8701V51.7431H50.6494V73.0973H85.3063V75.6815H47.1916V27.1247ZM88.2927 27.1247H92.3006L110.061 48.4788L128.215 27.1247L152.907 0L112.34 50.723L133.245 75.6815H129.079L110.061 52.9673L90.9646 75.6815H86.8781L107.939 50.723L88.2927 27.1247ZM134.738 29.7089V27.1247H177.725V29.7089H157.921V75.6815H154.463V29.7089H134.738ZM0 27.1247H4.32229L63.9242 104L39.2936 75.6815L3.61501 30.797L3.45783 75.6815H0V27.1247ZM177.376 72.3174C176.67 72.3174 176.14 71.8456 176.14 71.2359C176.14 70.6262 176.67 70.1543 177.376 70.1543C178.091 70.1543 178.613 70.6262 178.613 71.2359C178.613 71.8456 178.091 72.3174 177.376 72.3174ZM180.774 69.472H182.624C182.65 70.3358 183.381 70.9165 184.458 70.9165C185.661 70.9165 186.342 70.2923 186.342 69.1236V61.7199H188.226V69.1309C188.226 71.2359 186.813 72.4481 184.475 72.4481C182.28 72.4481 180.774 71.2722 180.774 69.472ZM190.69 69.3777H192.557C192.717 70.3721 193.844 71.0036 195.467 71.0036C196.981 71.0036 198.091 70.3285 198.091 69.3994C198.091 68.601 197.384 68.1219 195.778 67.7953L194.214 67.4687C192.019 67.0259 191.018 66.1113 191.018 64.5725C191.018 62.707 192.784 61.4658 195.433 61.4658C197.897 61.4658 199.697 62.707 199.807 64.4709H197.973C197.797 63.5055 196.821 62.903 195.408 62.903C193.919 62.903 192.927 63.52 192.927 64.4636C192.927 65.2112 193.566 65.6395 195.147 65.9589L196.485 66.242C198.974 66.7428 200 67.6138 200 69.1889C200 71.1923 198.2 72.4481 195.324 72.4481C192.633 72.4481 190.824 71.2504 190.69 69.3777Z" fill="white"/>
</svg>
